<svg width="24" height="24" viewBox="0 0 24 24" fill="none" xmlns="http://www.w3.org/2000/svg">
<circle cx="12" cy="12" r="11.25" stroke="#3BB361" stroke-width="1.5"/>
<path d="M17.0222 6.76499C15.7456 5.58833 14.1577 5 12.2613 5C10.2678 5 8.56854 5.6683 7.16626 7.00775C5.76397 8.34721 5.0614 10.0122 5.0614 12.0057C5.0614 13.9164 5.7297 15.5585 7.06344 16.9351C8.40289 18.3117 10.2022 19 12.467 19C13.8321 19 15.1716 18.7201 16.4853 18.1575C16.9137 17.9747 17.1222 17.4835 16.948 17.0522C16.7681 16.6067 16.2597 16.4011 15.817 16.5896C14.6746 17.0808 13.5551 17.3264 12.4641 17.3264C10.7277 17.3264 9.38249 16.798 8.4286 15.7385C7.47756 14.6818 7.00061 13.4394 7.00061 12.0143C7.00061 10.4663 7.51183 9.17544 8.53141 8.13872C9.54814 7.10486 10.8019 6.58507 12.287 6.58507C13.655 6.58507 14.8117 7.01061 15.7542 7.86169C16.6967 8.71277 17.1679 9.78376 17.1679 11.0747C17.1679 11.9572 16.9508 12.694 16.5196 13.2795C16.0883 13.8678 15.6399 14.1591 15.1744 14.1591C14.9231 14.1591 14.7974 14.0249 14.7974 13.7536C14.7974 13.5337 14.8146 13.2766 14.846 12.9796L15.3772 8.63566H13.5494L13.4323 9.0612C12.9667 8.68135 12.4555 8.49 11.9015 8.49C11.0218 8.49 10.2678 8.84129 9.64239 9.541C9.01407 10.2407 8.70277 11.1432 8.70277 12.2456C8.70277 13.3223 8.9798 14.1934 9.53672 14.8531C10.0936 15.5157 10.7619 15.8441 11.5445 15.8441C12.2442 15.8441 12.8411 15.55 13.338 14.9645C13.7122 15.5271 14.2634 15.807 14.9916 15.807C16.0626 15.807 16.988 15.3415 17.7676 14.4076C18.5473 13.4765 18.9386 12.3513 18.9386 11.0347C18.9386 9.36679 18.3017 7.94166 17.0222 6.76499ZM12.8125 13.3366C12.4898 13.7707 12.1042 13.9906 11.6559 13.9906C11.3503 13.9906 11.1046 13.8307 10.919 13.5108C10.7305 13.1909 10.6363 12.794 10.6363 12.317C10.6363 11.7287 10.7676 11.2546 11.0304 10.8947C11.2931 10.5349 11.6187 10.3521 12.0071 10.3521C12.3441 10.3521 12.644 10.4863 12.9068 10.7576C13.1695 11.029 13.3009 11.3888 13.3009 11.8401C13.298 12.4027 13.1352 12.8996 12.8125 13.3366Z" fill="#3BB361"/>
</svg>
