<?xml version="1.0" encoding="utf-8"?>
<!-- Generator: Adobe Illustrator 24.0.1, SVG Export Plug-In . SVG Version: 6.00 Build 0)  -->
<svg version="1.1" id="Слой_1" xmlns="http://www.w3.org/2000/svg" xmlns:xlink="http://www.w3.org/1999/xlink" x="0px" y="0px"
	 viewBox="0 0 50 50" style="enable-background:new 0 0 50 50;" xml:space="preserve">
<style type="text/css">
	.st0{fill-rule:evenodd;clip-rule:evenodd;fill:#FFFFFF;}
	.st1{fill-rule:evenodd;clip-rule:evenodd;fill:#40AA5F;}
	.st2{fill-rule:evenodd;clip-rule:evenodd;fill:#59AF31;}
</style>
<g>
	<ellipse transform="matrix(0.1747 -0.9846 0.9846 0.1747 -3.9841 45.2466)" class="st0" cx="25" cy="25" rx="25" ry="25"/>
	<g>
		<path class="st1" d="M9.79,32.47l-0.54-1.58c-0.52-3.04-0.47-3.96,1.04-6.12c1.21-1.73,2.4-2.45,4.08-3.63
			c0.21-0.15,0.39-0.29,0.56-0.42c1.43-1.09,1.44-1.36,1.21-3.57l-0.27-1.04l1.3,0.87c1.31,0.88,1.49,1.51,1.03,2.97l-0.4,1.28
			l1.06-0.72l0.5-0.42c1.47-1.23,1.67-1.71,1.99-3.58l0.2-1.17l0.59-1.72l1.11-1.79l2.26-2.58l-0.88,1.81l-0.17,0.6
			c-0.58,2.01,0.9,2.18,1.98,1.47c0.98-0.64,1.47-1.84,1.78-2.93c0.58-2.03,0.59-3.21-0.09-5.5c1.7,1.15,3.14,2.04,4.18,3.7
			c0.9,1.44,1.05,3.05,0.95,4.71l-0.15,2.23l-0.04,0.59l-0.03,0.47c-0.07,1.08-0.14,2.02,0.42,2.99c0.37,0.65,0.93,1.2,1.49,1.73
			c1.61,1.51,2.53,3.75,3.6,5.67c-1.86-1.42-4.84-3.06-5.99-5.12c-0.83-1.49-0.69-2.44-0.53-4.59l0.09-1.88
			c0.08-1.59,0.06-2.51-0.51-3.72c-0.4-0.84-1.05-1.96-1.81-2.51l-0.43-0.31l-0.02,0.96c-0.03,1.61-0.58,2.97-1.36,4.36
			c-0.51,0.92-1.11,1.7-2.25,2.03c-1.37,0.4-1.64,0.27-2.59-1.09l-0.58,1.37l-0.38,1.15c-0.21,2.21-0.44,3.07-2.06,4.69l-1.31,1.11
			l-2.17,1.4l-1,0.59l1.04-2.15c0.29-0.6,0.35-0.95,0.5-1.58c0.08-0.34,0.14-0.69,0.03-1.01l-0.19-0.56l-0.1,0.76
			c-0.2,1.54-1.75,2.51-2.89,3.38l-1.65,1.2l-1.27,1.2l-0.54,0.81l-0.36,0.91l-0.27,1.04l-0.07,1.15L9.79,32.47z"/>
		<path class="st1" d="M35.12,20.69c-0.7-1.72-1.14-3.24-0.22-5.01c1.02-1.95,2.13-2.61,3.84-3.96l-1.08,1.3
			c-1.27,1.54-0.54,2.91,0.51,4.09c0.53,0.59,0.94,1.07,1.32,1.56c1.21,1.53,1.93,2.73,2.4,4.71c0.4,1.66,0.14,2.87-0.42,5.57
			l-0.05,0.28l2.52-2.49l-0.28,2.41c-0.34,1.97-0.48,2.61-1.29,4.41l-0.77,1.38c0.32-1.12,0.74-2.24,0.86-3.4l0.11-1.03l-3.03,3.01
			l0.81-2.67c0.76-3.3,0.99-4.81-0.46-7.88l-1.04-1.52l-1.43-1.77c-0.98-1.16-1.03-1.32-1.58-2.67c-0.26,0.88-0.55,1.74-0.64,2.66
			L35.12,20.69z"/>
		<path class="st1" d="M12.27,32.51c2.02-3.82,3.35-5.64,6.64-7.2c4.6-2.18,9.72-1.38,13.92,1.24l-1.77,1.79
			c-3.44-2.55-8.4-3.94-12.43-1.89c-2.4,1.22-3.35,2.28-5.27,4.56L12.27,32.51z"/>
		<path class="st1" d="M32.18,29.34l1.97-1.65c2.41,2.53,3.88,4.72,4.43,8.17l-2.87,0.01C35.27,33.42,34.01,31.05,32.18,29.34z"/>
		<polygon class="st1" points="22.36,37 31.15,29.65 31.46,30.01 24.31,37.05 		"/>
		<rect x="22.93" y="26.32" class="st2" width="0.2" height="1.21"/>
		
			<rect x="24.78" y="26.88" transform="matrix(0.1043 -0.9945 0.9945 0.1043 -4.0937 49.4148)" class="st1" width="1.21" height="0.2"/>
		
			<rect x="27.02" y="27.4" transform="matrix(0.2731 -0.962 0.962 0.2731 -6.3729 46.5675)" class="st1" width="1.21" height="0.2"/>
		
			<rect x="28.97" y="28.58" transform="matrix(0.5584 -0.8295 0.8295 0.5584 -10.7358 37.2006)" class="st1" width="1.21" height="0.2"/>
		
			<rect x="31.55" y="31.58" transform="matrix(0.8149 -0.5796 0.5796 0.8149 -12.4083 24.4997)" class="st1" width="1.21" height="0.2"/>
		
			<rect x="32.47" y="33.78" transform="matrix(0.9511 -0.3089 0.3089 0.9511 -8.8475 11.8737)" class="st1" width="1.21" height="0.2"/>
	</g>
	<path class="st1" d="M25,2.72c12.31,0,22.28,9.98,22.28,22.28S37.31,47.28,25,47.28C12.69,47.28,2.72,37.31,2.72,25
		S12.69,2.72,25,2.72L25,2.72z M25,0C11.19,0,0,11.19,0,25c0,13.81,11.19,25,25,25c13.81,0,25-11.19,25-25C50,11.19,38.81,0,25,0z"
		/>
</g>
</svg>
