<svg width="36" height="48" viewBox="0 0 36 48" fill="none" xmlns="http://www.w3.org/2000/svg">
<path d="M30.05 6.67C23.46 0.440001 12.76 0.440001 6.17001 6.67C0.230015 12.28 -0.439985 22.85 4.60001 29.2L18.11 47.62L31.62 29.2C36.67 22.85 36 12.28 30.05 6.67ZM18.28 23.06C15.2 23.06 12.71 20.7 12.71 17.8C12.71 14.89 15.21 12.54 18.28 12.54C21.36 12.54 23.85 14.9 23.85 17.8C23.85 20.7 21.35 23.06 18.28 23.06Z" fill="#40AA5F"/>
<path d="M34.4662 19.9639C35.2562 10.9078 28.5552 2.92601 19.4991 2.13604C10.443 1.34607 2.46125 8.04705 1.67128 17.1031C0.881306 26.1592 7.5823 34.141 16.6384 34.9309C25.6944 35.7209 33.6762 29.0199 34.4662 19.9639Z" fill="white"/>
<path fill-rule="evenodd" clip-rule="evenodd" d="M8.05 23.46L7.69 22.42C7.35 20.42 7.38 19.81 8.38 18.39C9.18 17.25 9.96 16.78 11.06 16C11.2 15.9 11.32 15.81 11.43 15.73C12.37 15.01 12.38 14.83 12.23 13.38L12.05 12.69L12.9 13.26C13.76 13.84 13.88 14.25 13.58 15.22L13.32 16.06L14.02 15.58L14.35 15.3C15.31 14.49 15.45 14.17 15.66 12.95L15.79 12.18L16.18 11.05L16.91 9.87L18.4 8.17L17.82 9.36L17.7 9.75C17.32 11.07 18.29 11.19 19 10.72C19.65 10.3 19.97 9.51 20.17 8.79C20.55 7.45 20.56 6.68 20.11 5.17C21.23 5.93 22.18 6.51 22.86 7.6C23.45 8.55 23.55 9.61 23.48 10.7L23.38 12.17L23.35 12.56L23.33 12.87C23.28 13.58 23.24 14.2 23.6 14.84C23.84 15.27 24.21 15.63 24.58 15.98C25.64 16.98 26.24 18.45 26.95 19.71C25.72 18.78 23.76 17.69 23.01 16.34C22.46 15.36 22.56 14.73 22.66 13.32L22.72 12.08C22.77 11.03 22.76 10.43 22.38 9.63C22.12 9.08 21.69 8.34 21.19 7.98L20.91 7.77L20.9 8.4C20.88 9.46 20.52 10.35 20.01 11.27C19.67 11.87 19.28 12.39 18.53 12.6C17.62 12.86 17.45 12.78 16.83 11.88L16.45 12.78L16.2 13.54C16.06 15 15.91 15.56 14.84 16.63L13.98 17.36L12.55 18.28L11.89 18.67L12.57 17.26C12.76 16.87 12.8 16.63 12.9 16.22C12.95 16 12.99 15.76 12.92 15.55L12.8 15.18L12.74 15.68C12.61 16.69 11.59 17.33 10.84 17.91L9.75 18.7L8.91 19.5L8.55 20.04L8.31 20.64L8.13 21.33L8.09 22.09L8.05 23.46Z" fill="#40AA5F"/>
<path fill-rule="evenodd" clip-rule="evenodd" d="M24.73 15.7C24.27 14.57 23.98 13.56 24.58 12.4C25.25 11.11 25.98 10.68 27.11 9.79L26.4 10.65C25.56 11.66 26.05 12.57 26.74 13.34C27.09 13.73 27.36 14.05 27.61 14.36C28.41 15.37 28.88 16.15 29.19 17.46C29.45 18.55 29.28 19.35 28.91 21.13L28.88 21.32L30.54 19.68L30.35 21.27C30.13 22.57 30.03 22.99 29.5 24.18L28.99 25.09C29.2 24.35 29.47 23.62 29.56 22.85L29.63 22.17L27.63 24.15L28.17 22.39C28.67 20.22 28.82 19.22 27.86 17.2L27.17 16.2L26.23 15.04C25.58 14.28 25.55 14.17 25.19 13.28C25.02 13.86 24.83 14.42 24.77 15.03L24.73 15.7Z" fill="#40AA5F"/>
<path fill-rule="evenodd" clip-rule="evenodd" d="M9.67999 23.48C11.01 20.97 11.89 19.76 14.06 18.74C17.09 17.31 20.46 17.83 23.23 19.56L22.07 20.74C19.8 19.06 16.54 18.14 13.88 19.5C12.3 20.3 11.68 21 10.41 22.5L9.67999 23.48Z" fill="#40AA5F"/>
<path fill-rule="evenodd" clip-rule="evenodd" d="M22.79 21.4L24.09 20.31C25.67 21.98 26.65 23.42 27 25.69L25.11 25.7C24.83 24.08 24 22.52 22.79 21.4Z" fill="#40AA5F"/>
<path fill-rule="evenodd" clip-rule="evenodd" d="M16.33 26.44L22.11 21.6L22.32 21.83L17.61 26.47L16.33 26.44Z" fill="#40AA5F"/>
<path d="M16.83 19.41H16.7V20.21H16.83V19.41Z" fill="#59AF31"/>
<path d="M18.2914 19.4382L18.208 20.2338L18.3373 20.2473L18.4207 19.4517L18.2914 19.4382Z" fill="#40AA5F"/>
<path d="M19.8456 19.7782L19.6271 20.5478L19.7521 20.5833L19.9706 19.8137L19.8456 19.7782Z" fill="#40AA5F"/>
<path d="M21.2488 20.5962L20.8021 21.2598L20.9099 21.3324L21.3566 20.6688L21.2488 20.5962Z" fill="#40AA5F"/>
<path d="M23.0684 22.6484L22.4164 23.1121L22.4918 23.2181L23.1437 22.7544L23.0684 22.6484Z" fill="#40AA5F"/>
<path d="M23.7506 24.1978L22.9897 24.4449L23.0299 24.5686L23.7908 24.3215L23.7506 24.1978Z" fill="#40AA5F"/>
<path fill-rule="evenodd" clip-rule="evenodd" d="M18.07 3.87C26.17 3.87 32.74 10.44 32.74 18.54C32.74 26.64 26.17 33.21 18.07 33.21C9.96997 33.21 3.39998 26.64 3.39998 18.54C3.39998 10.44 9.95998 3.87 18.07 3.87ZM18.07 2.07C8.96997 2.07 1.59998 9.44 1.59998 18.54C1.59998 27.63 8.96997 35 18.07 35C27.16 35 34.53 27.63 34.53 18.54C34.53 9.44 27.16 2.07 18.07 2.07Z" fill="#40AA5F"/>
</svg>
