<svg width="75" height="75" viewBox="0 0 75 75" fill="none" xmlns="http://www.w3.org/2000/svg">
<path d="M37.5353 31.0795C41.1161 31.0664 43.9681 28.19 43.955 24.6015C43.942 21.0114 41.0839 18.1549 37.5016 18.1519C33.8893 18.148 31.0044 21.0575 31.032 24.6797C31.0589 28.2552 33.943 31.0925 37.5353 31.0795Z" fill="white"/>
<path d="M37.5 0C16.7893 0 0 16.79 0 37.5C0 58.21 16.7893 75 37.5 75C58.2107 75 75 58.21 75 37.5C75 16.79 58.2107 0 37.5 0ZM37.5537 11.4038C44.8581 11.4238 50.7207 17.3985 50.6831 24.7834C50.6463 31.998 44.6877 37.8453 37.3956 37.8207C30.178 37.7962 24.2586 31.8123 24.3015 24.5831C24.3422 17.2749 30.2647 11.3839 37.5537 11.4038ZM52.3481 43.0105C50.733 44.6685 48.7887 45.8685 46.6297 46.7056C44.5887 47.4967 42.3522 47.8949 40.1379 48.1604C40.4731 48.524 40.6304 48.7028 40.8391 48.9115C43.8437 51.9322 46.8629 54.9376 49.8575 57.9668C50.878 58.9995 51.0905 60.2793 50.5289 61.4785C49.9159 62.7905 48.5402 63.6529 47.1905 63.5601C46.3358 63.501 45.6691 63.0767 45.0775 62.4806C42.8095 60.1987 40.4985 57.9575 38.278 55.6327C37.6297 54.956 37.3197 55.0849 36.7481 55.6726C34.467 58.022 32.1483 60.3338 29.8166 62.6333C28.7693 63.666 27.5233 63.8532 26.3079 63.2624C25.0166 62.6379 24.1957 61.3189 24.2586 59.9923C24.3031 59.0977 24.7435 58.4118 25.3588 57.7995C28.3335 54.8309 31.299 51.8532 34.2652 48.8777C34.4624 48.6806 34.645 48.4711 34.9312 48.1642C30.8854 47.7414 27.2371 46.7455 24.1136 44.3033C23.7253 43.9995 23.3256 43.7064 22.9726 43.3657C21.6046 42.0529 21.4673 40.5483 22.5483 39C23.4744 37.6742 25.0274 37.3197 26.6425 38.0816C26.9555 38.2281 27.2532 38.4138 27.5386 38.6102C33.3591 42.61 41.3555 42.7197 47.199 38.789C47.7775 38.3471 48.3967 37.9834 49.1141 37.8C50.5074 37.4409 51.8087 37.9542 52.556 39.1742C53.4115 40.5683 53.4015 41.9279 52.3481 43.0105Z" fill="white"/>
</svg>
