<svg width="24" height="24" viewBox="0 0 24 24" fill="none" xmlns="http://www.w3.org/2000/svg">
<circle cx="12" cy="12" r="11.25" stroke="#3BB361" stroke-width="1.5"/>
<path d="M15.6437 14.2614C15.1863 13.8098 14.6153 13.8098 14.1609 14.2614C13.8142 14.6052 13.4675 14.9489 13.1267 15.2985C13.0334 15.3947 12.9548 15.4151 12.8412 15.351C12.6168 15.2286 12.378 15.1296 12.1624 14.9956C11.1573 14.3634 10.3154 13.5506 9.56956 12.6358C9.19958 12.1813 8.87038 11.6948 8.64023 11.1471C8.59362 11.0364 8.60236 10.9636 8.69267 10.8733C9.03935 10.5383 9.37729 10.1945 9.71814 9.85072C10.193 9.37294 10.193 8.8136 9.71523 8.33291C9.44429 8.05906 9.17336 7.79104 8.90242 7.51719C8.62275 7.23752 8.34599 6.95493 8.0634 6.67817C7.60602 6.23244 7.03502 6.23244 6.58055 6.68109C6.23096 7.02485 5.89593 7.37736 5.54051 7.7153C5.21131 8.02701 5.04526 8.40865 5.0103 8.85438C4.95495 9.57979 5.13266 10.2644 5.3832 10.9315C5.89593 12.3124 6.67669 13.5389 7.6235 14.6634C8.90242 16.1842 10.429 17.3873 12.2148 18.2555C13.0189 18.6459 13.8521 18.9459 14.7581 18.9955C15.3815 19.0304 15.9234 18.8731 16.3575 18.3866C16.6546 18.0545 16.9897 17.7515 17.3043 17.434C17.7704 16.962 17.7733 16.391 17.3101 15.9249C16.7566 15.3684 16.2002 14.8149 15.6437 14.2614Z" fill="#3BB361"/>
<path d="M15.0873 11.9391L16.1623 11.7555C15.9933 10.7679 15.5272 9.87355 14.8193 9.16271C14.0705 8.414 13.1237 7.94205 12.0808 7.79639L11.9293 8.87721C12.7363 8.99083 13.4704 9.35499 14.0502 9.93473C14.5978 10.4824 14.9562 11.1758 15.0873 11.9391Z" fill="#3BB361"/>
<path d="M16.7682 7.26652C15.5272 6.02547 13.9569 5.2418 12.2235 5L12.0721 6.08082C13.5695 6.29058 14.9271 6.96937 15.9991 8.03854C17.0159 9.05527 17.683 10.34 17.9248 11.753L18.9998 11.5694C18.7172 9.93216 17.9452 8.4464 16.7682 7.26652Z" fill="#3BB361"/>
</svg>
