<?xml version="1.0" encoding="utf-8"?>
<!-- Generator: Adobe Illustrator 24.0.1, SVG Export Plug-In . SVG Version: 6.00 Build 0)  -->
<svg version="1.1" id="Слой_1" xmlns="http://www.w3.org/2000/svg" xmlns:xlink="http://www.w3.org/1999/xlink" x="0px" y="0px"
	 viewBox="0 0 34 96" style="enable-background:new 0 0 34 96;" xml:space="preserve">
<style type="text/css">
	.st0{fill:#40AA5F;}
	.st1{fill-rule:evenodd;clip-rule:evenodd;fill:#FFFFFF;}
	.st2{fill-rule:evenodd;clip-rule:evenodd;fill:#40AA5F;}
	.st3{fill-rule:evenodd;clip-rule:evenodd;fill:#59AF31;}
</style>
<path class="st0" d="M29.05,4.67c-6.59-6.23-17.29-6.23-23.88,0C-0.77,10.28-1.44,20.85,3.6,27.2l13.51,18.42L30.62,27.2
	C35.67,20.85,35,10.28,29.05,4.67z M17.28,21.06c-3.08,0-5.57-2.36-5.57-5.26c0-2.91,2.5-5.26,5.57-5.26c3.08,0,5.57,2.36,5.57,5.26
	C22.85,18.7,20.35,21.06,17.28,21.06z"/>
<g>
	
		<ellipse transform="matrix(0.0869 -0.9962 0.9962 0.0869 -0.8918 32.1013)" class="st1" cx="17.07" cy="16.54" rx="16.46" ry="16.46"/>
	<g>
		<path class="st2" d="M7.05,21.46l-0.36-1.04c-0.34-2-0.31-2.61,0.69-4.03c0.8-1.14,1.58-1.61,2.68-2.39
			c0.14-0.1,0.26-0.19,0.37-0.27c0.94-0.72,0.95-0.9,0.8-2.35l-0.18-0.69l0.85,0.57c0.86,0.58,0.98,0.99,0.68,1.96l-0.26,0.84
			l0.7-0.48l0.33-0.28c0.96-0.81,1.1-1.13,1.31-2.35l0.13-0.77l0.39-1.13l0.73-1.18l1.49-1.7l-0.58,1.19L16.7,7.75
			c-0.38,1.32,0.59,1.44,1.3,0.97c0.65-0.42,0.97-1.21,1.17-1.93c0.38-1.34,0.39-2.11-0.06-3.62c1.12,0.76,2.07,1.34,2.75,2.43
			c0.59,0.95,0.69,2.01,0.62,3.1l-0.1,1.47l-0.03,0.39l-0.02,0.31c-0.05,0.71-0.09,1.33,0.27,1.97c0.24,0.43,0.61,0.79,0.98,1.14
			c1.06,1,1.66,2.47,2.37,3.73c-1.23-0.93-3.19-2.02-3.94-3.37c-0.55-0.98-0.45-1.61-0.35-3.02l0.06-1.24
			c0.05-1.05,0.04-1.65-0.34-2.45c-0.26-0.55-0.69-1.29-1.19-1.65l-0.28-0.21l-0.01,0.63c-0.02,1.06-0.38,1.95-0.89,2.87
			c-0.34,0.6-0.73,1.12-1.48,1.33c-0.91,0.26-1.08,0.18-1.7-0.72l-0.38,0.9l-0.25,0.76c-0.14,1.46-0.29,2.02-1.36,3.09l-0.86,0.73
			l-1.43,0.92l-0.66,0.39l0.68-1.41c0.19-0.39,0.23-0.63,0.33-1.04c0.05-0.22,0.09-0.46,0.02-0.67l-0.12-0.37l-0.06,0.5
			c-0.13,1.01-1.15,1.65-1.9,2.23l-1.09,0.79L7.91,17.5l-0.36,0.54l-0.24,0.6l-0.18,0.69l-0.04,0.76L7.05,21.46z"/>
		<path class="st2" d="M23.73,13.7c-0.46-1.13-0.75-2.14-0.15-3.3c0.67-1.29,1.4-1.72,2.53-2.61l-0.71,0.86
			c-0.84,1.01-0.35,1.92,0.34,2.69c0.35,0.39,0.62,0.71,0.87,1.02c0.8,1.01,1.27,1.79,1.58,3.1c0.26,1.09,0.09,1.89-0.28,3.67
			l-0.03,0.19l1.66-1.64l-0.19,1.59c-0.22,1.3-0.32,1.72-0.85,2.91l-0.51,0.91c0.21-0.74,0.48-1.47,0.57-2.24l0.07-0.68l-2,1.98
			l0.54-1.76c0.5-2.17,0.65-3.17-0.31-5.19l-0.69-1l-0.94-1.16c-0.65-0.76-0.68-0.87-1.04-1.76c-0.17,0.58-0.36,1.14-0.42,1.75
			L23.73,13.7z"/>
		<path class="st2" d="M8.68,21.48c1.33-2.51,2.21-3.72,4.38-4.74c3.03-1.43,6.4-0.91,9.17,0.82l-1.16,1.18
			c-2.27-1.68-5.53-2.6-8.19-1.24c-1.58,0.8-2.2,1.5-3.47,3L8.68,21.48z"/>
		<path class="st2" d="M21.79,19.4l1.3-1.09c1.58,1.67,2.56,3.11,2.91,5.38l-1.89,0.01C23.83,22.08,23,20.52,21.79,19.4z"/>
		<polygon class="st2" points="15.33,24.44 21.11,19.6 21.32,19.83 16.61,24.47 		"/>
		<rect x="15.7" y="17.41" class="st3" width="0.13" height="0.8"/>
		
			<rect x="16.92" y="17.77" transform="matrix(0.1043 -0.9945 0.9945 0.1043 -2.229 33.2073)" class="st2" width="0.8" height="0.13"/>
		<rect x="18.4" y="18.12" transform="matrix(0.2731 -0.962 0.962 0.2731 -3.8294 31.3)" class="st2" width="0.8" height="0.13"/>
		
			<rect x="19.68" y="18.9" transform="matrix(0.5584 -0.8295 0.8295 0.5584 -6.8648 25.0306)" class="st2" width="0.8" height="0.13"/>
		
			<rect x="21.38" y="20.87" transform="matrix(0.8149 -0.5796 0.5796 0.8149 -8.1024 16.497)" class="st2" width="0.8" height="0.13"/>
		
			<rect x="21.99" y="22.32" transform="matrix(0.9511 -0.3089 0.3089 0.9511 -5.8196 8.0091)" class="st2" width="0.8" height="0.13"/>
	</g>
	<path class="st2" d="M17.07,1.87c8.1,0,14.67,6.57,14.67,14.67s-6.57,14.67-14.67,14.67c-8.1,0-14.67-6.57-14.67-14.67
		S8.96,1.87,17.07,1.87L17.07,1.87z M17.07,0.07C7.97,0.07,0.6,7.44,0.6,16.54C0.6,25.63,7.97,33,17.07,33
		c9.09,0,16.46-7.37,16.46-16.46C33.53,7.44,26.16,0.07,17.07,0.07z"/>
</g>
</svg>
