<svg width="24" height="24" viewBox="0 0 24 24" fill="none" xmlns="http://www.w3.org/2000/svg">
<circle cx="12" cy="12" r="11.25" stroke="#3BB361" stroke-width="1.5"/>
<path d="M15.4673 6.43613C14.5413 5.51007 13.31 5 12.0004 5C10.6906 5 9.4595 5.51007 8.53344 6.43613C6.81965 8.14966 6.60667 11.3737 8.0722 13.3271L12.0004 19L15.9227 13.335C17.3941 11.3737 17.1811 8.14966 15.4673 6.43613ZM12.0456 11.6476C11.059 11.6476 10.2559 10.8445 10.2559 9.85783C10.2559 8.87118 11.059 8.0681 12.0456 8.0681C13.0323 8.0681 13.8354 8.87118 13.8354 9.85783C13.8354 10.8445 13.0323 11.6476 12.0456 11.6476Z" fill="#3BB361"/>
</svg>
