<svg width="21" height="21" viewBox="0 0 21 21" fill="none" xmlns="http://www.w3.org/2000/svg">
<path d="M10.4997 0C4.71017 0 0 4.71017 0 10.5003C0 16.2898 4.70952 21 10.4997 21C10.8577 21 11.147 20.7101 11.147 20.3533C11.147 19.9959 10.8577 19.7059 10.4997 19.7059C5.42373 19.7059 1.29534 15.5763 1.29534 10.501C1.29534 5.42502 5.42373 1.29534 10.4997 1.29534C15.5756 1.29534 19.7034 5.42502 19.7034 10.501C19.7034 12.6217 18.5745 14.7251 16.959 15.6148C16.3721 15.9376 15.7357 16.0976 15.0568 16.104C15.4644 15.8611 15.8173 15.5338 16.0796 15.1198C16.1311 15.0421 16.1992 14.9746 16.2326 14.8891C16.4435 14.3819 16.4621 13.8065 16.5894 13.2717C16.7456 12.5864 13.595 11.2512 13.3211 12.1049C13.2222 12.4218 13.0704 13.4214 12.8718 13.685C12.695 13.9196 12.2592 13.8091 11.9866 13.577C11.2685 12.965 10.4669 12.065 9.76361 11.3547L9.7649 11.354C9.7469 11.3354 9.72504 11.3142 9.70576 11.2955C9.68583 11.2762 9.6659 11.2557 9.64597 11.2364C8.93498 10.5337 8.03499 9.7334 7.42364 9.01341C7.19221 8.74084 7.08036 8.30627 7.31564 8.12885C7.57921 7.92956 8.57948 7.77978 8.89577 7.68014C9.74819 7.40692 8.41363 4.25438 7.72835 4.41188C7.1935 4.53724 6.61815 4.55652 6.11094 4.76674C6.0248 4.80274 5.95794 4.86959 5.88015 4.92102C4.08082 6.06208 3.84875 8.83148 5.60501 10.8944C6.27422 11.6838 6.97236 12.4475 7.69106 13.1932L7.68721 13.1958C7.70714 13.2157 7.72771 13.2344 7.74828 13.2537C7.76756 13.2736 7.78621 13.2935 7.80485 13.3147L7.80871 13.3109C8.55441 14.0296 9.43833 15.0877 10.8745 16.0462C13.8978 18.0654 16.2178 17.5016 17.5845 16.752C19.9438 15.4528 20.9994 12.6777 20.9994 10.5042C21 4.71017 16.2892 0 10.4997 0Z" fill="#3BB361"/>
</svg>
