<svg width="24" height="24" viewBox="0 0 24 24" fill="none" xmlns="http://www.w3.org/2000/svg">
<circle cx="12" cy="12" r="11.25" stroke="#3BB361" stroke-width="1.5"/>
<g clip-path="url(#clip0)">
<path d="M10.1008 12.7237C10.1008 12.5483 9.95852 12.4062 9.783 12.4062H8.6741C8.49879 12.4062 8.35651 12.5483 8.35651 12.7237V13.8325C8.35651 14.0081 8.49879 14.1502 8.6741 14.1502H9.783C9.95852 14.1502 10.1008 14.0081 10.1008 13.8325V12.7237Z" fill="#3BB361"/>
<path d="M12.8721 12.7237C12.8721 12.5483 12.7298 12.4062 12.5546 12.4062H11.4456C11.2702 12.4062 11.128 12.5483 11.128 12.7237V13.8325C11.128 14.0081 11.2702 14.1502 11.4456 14.1502H12.5546C12.7298 14.1502 12.8721 14.0081 12.8721 13.8325V12.7237Z" fill="#3BB361"/>
<path d="M15.6435 12.7237C15.6435 12.5483 15.5012 12.4062 15.3259 12.4062H14.217C14.0415 12.4062 13.8992 12.5483 13.8992 12.7237V13.8325C13.8992 14.0081 14.0415 14.1502 14.217 14.1502H15.3259C15.5012 14.1502 15.6435 14.0081 15.6435 13.8325V12.7237Z" fill="#3BB361"/>
<path d="M10.1008 15.4954C10.1008 15.3197 9.95852 15.1777 9.783 15.1777H8.6741C8.49879 15.1777 8.35651 15.3197 8.35651 15.4954V16.6039C8.35651 16.7794 8.49879 16.9215 8.6741 16.9215H9.783C9.95852 16.9215 10.1008 16.7794 10.1008 16.6039V15.4954Z" fill="#3BB361"/>
<path d="M12.8721 15.4954C12.8721 15.3197 12.7298 15.1777 12.5546 15.1777H11.4456C11.2702 15.1777 11.128 15.3197 11.128 15.4954V16.6039C11.128 16.7794 11.2702 16.9215 11.4456 16.9215H12.5546C12.7298 16.9215 12.8721 16.7794 12.8721 16.6039V15.4954Z" fill="#3BB361"/>
<path d="M15.6435 15.4954C15.6435 15.3197 15.5012 15.1777 15.326 15.1777H14.217C14.0415 15.1777 13.8992 15.3197 13.8992 15.4954V16.6039C13.8992 16.7794 14.0415 16.9215 14.217 16.9215H15.326C15.5012 16.9215 15.6435 16.7794 15.6435 16.6039V15.4954Z" fill="#3BB361"/>
<path d="M17.6263 6.55881V8.25234C17.6263 9.0178 17.0053 9.63464 16.24 9.63464H15.3655C14.6001 9.63464 13.9709 9.0178 13.9709 8.25234V6.55273H10.0291V8.25234C10.0291 9.0178 9.39996 9.63464 8.63468 9.63464H7.75998C6.99466 9.63464 6.37372 9.0178 6.37372 8.25234V6.55881C5.70483 6.57898 5.15518 7.13246 5.15518 7.81277V17.7377C5.15518 18.4308 5.71696 19 6.41006 19H17.5899C18.282 19 18.8448 18.4296 18.8448 17.7377V7.81277C18.8448 7.13246 18.2952 6.57898 17.6263 6.55881ZM17.2201 17.1196C17.2201 17.4191 16.9773 17.6621 16.6776 17.6621H7.29849C6.99885 17.6621 6.75599 17.4191 6.75599 17.1196V11.9931C6.75599 11.6934 6.99882 11.4504 7.29849 11.4504H16.6776C16.9772 11.4504 17.2201 11.6934 17.2201 11.9931L17.2201 17.1196Z" fill="#3BB361"/>
<path d="M7.75688 8.72677H8.62192C8.88448 8.72677 9.09737 8.5142 9.09737 8.25163V5.47531C9.09737 5.21272 8.88448 5 8.62192 5H7.75688C7.49429 5 7.28143 5.21272 7.28143 5.47531V8.25163C7.28143 8.5142 7.49429 8.72677 7.75688 8.72677Z" fill="#3BB361"/>
<path d="M15.3543 8.72677H16.2194C16.4818 8.72677 16.6946 8.5142 16.6946 8.25163V5.47531C16.6947 5.21272 16.4818 5 16.2194 5H15.3543C15.0918 5 14.8789 5.21272 14.8789 5.47531V8.25163C14.8789 8.5142 15.0918 8.72677 15.3543 8.72677Z" fill="#3BB361"/>
</g>
<defs>
<clipPath id="clip0">
<rect width="14" height="14" fill="white" transform="translate(5 5)"/>
</clipPath>
</defs>
</svg>
