<svg width="75" height="75" viewBox="0 0 75 75" fill="none" xmlns="http://www.w3.org/2000/svg">
<path d="M37.5 0C16.7925 0 0 16.7925 0 37.5C0 58.2075 16.7925 75 37.5 75C58.2075 75 75 58.2075 75 37.5C75 16.7925 58.2075 0 37.5 0ZM38.2948 59.3336C38.2942 59.3336 38.2954 59.3336 38.2948 59.3336H38.2856C34.5291 59.3319 30.8378 58.39 27.5597 56.6025L15.6618 59.7227L18.8461 48.0955C16.8818 44.6932 15.8484 40.8331 15.8501 36.8786C15.8552 24.5075 25.9237 14.443 38.2948 14.443C44.2984 14.4453 49.934 16.7822 54.1712 21.0228C58.4089 25.264 60.7412 30.9013 60.7389 36.8963C60.7338 49.268 50.6641 59.3336 38.2948 59.3336Z" fill="white"/>
<path d="M38.3023 18.2324C28.0123 18.2324 19.6438 26.5975 19.6392 36.88C19.6381 40.4036 20.6246 43.8351 22.4917 46.8043L22.9351 47.5098L21.0503 54.3917L28.1107 52.5401L28.7922 52.9441C31.6561 54.6435 34.9394 55.5424 38.2868 55.5436H38.2942C48.5762 55.5436 56.9447 47.178 56.9493 36.8949C56.951 31.9115 55.0123 27.2263 51.4904 23.7016C47.9685 20.1768 43.2844 18.2341 38.3023 18.2324ZM49.2749 44.8977C48.8074 46.2069 46.5672 47.4023 45.4897 47.5636C44.5233 47.7078 43.301 47.7679 41.9575 47.3416C41.1427 47.083 40.0984 46.7379 38.76 46.1606C33.1347 43.7321 29.4605 38.0696 29.1802 37.6954C28.8998 37.3212 26.8902 34.6553 26.8902 31.8955C26.8902 29.1364 28.339 27.7797 28.8529 27.2189C29.3673 26.6576 29.975 26.5174 30.3486 26.5174C30.7223 26.5174 31.0965 26.5208 31.4232 26.5368C31.7677 26.554 32.23 26.4058 32.6849 27.4993C33.1524 28.6219 34.2739 31.3811 34.4141 31.6615C34.5543 31.9424 34.6476 32.2697 34.461 32.644C34.2739 33.0182 33.6525 33.8256 33.0591 34.5614C32.8102 34.8698 32.4858 35.1445 32.8131 35.7058C33.1398 36.2666 34.2659 38.1028 35.9328 39.5894C38.0751 41.4994 39.8821 42.0911 40.4429 42.372C41.0031 42.6524 41.3304 42.6055 41.6577 42.2318C41.9844 41.8576 43.0596 40.5947 43.4332 40.0334C43.8069 39.4721 44.1811 39.5659 44.6949 39.753C45.2093 39.9396 47.9662 41.2963 48.527 41.5767C49.0877 41.8576 49.4614 41.9978 49.6016 42.2318C49.7423 42.4659 49.7423 43.588 49.2749 44.8977Z" fill="white"/>
</svg>
